<svg width="929" height="824" viewBox="0 0 702 618" xmlns="http://www.w3.org/2000/svg" xmlns:xlink="http://www.w3.org/1999/xlink">
<g id="graph0" class="graph" transform="translate(1.9155336511297818,498.9730556965409) scale(0.47888341278244545)">
<title>unnamed</title>
<polygon fill="white" stroke="transparent" points="-4,4 -4,-797.4 1461.91,-797.4 1461.91,4 -4,4"/>
<g id="clust1" class="cluster">
<title>cluster_L</title>
<polygon fill="none" stroke="black" points="8,-665.6 8,-785.4 496,-785.4 496,-665.6 8,-665.6"/>
</g>
<!-- Type: cpu -->
<g id="node1" class="node">
<title style="">Type: inuse_space</title>
<polygon fill="#f8f8f8" stroke="black" points="487.52,-777.3 16.48,-777.3 16.48,-673.7 487.52,-673.7 487.52,-777.3" style=""/>
<text text-anchor="start" x="24.24" y="-759" font-family="Times,serif" font-size="16.00">Type: inuse_space</text>
<text text-anchor="start" x="24.24" y="-739.8" font-family="Times,serif" font-size="16.00">Time: Jul 15, 2023 at 3:29pm (EEST)</text>
<text text-anchor="start" x="24.24" y="-720.6" font-family="Times,serif" font-size="16.00">Showing nodes accounting for 10288.04kB, 100% of 10288.04kB total</text>
<text text-anchor="start" x="24.24" y="-682.4" font-family="Times,serif" font-size="16.00">See https://git.io/JfYMW for how to read the graph</text>
</g>
<!-- N1 -->
<g id="node1" class="node">
<title>N1</title>
<g id="a_node1"><a xlink:title="golang.org/x/net/webdav.(*memFile).Write (9103.77kB)">
<polygon fill="#edd6d5" stroke="#b20600" points="663.98,-422.5 446.02,-422.5 446.02,-299.1 663.98,-299.1 663.98,-422.5"/>
<text text-anchor="middle" x="555" y="-396.79999999999995" font-family="Times,serif" font-size="24">webdav</text>
<text text-anchor="middle" x="555" y="-368" font-family="Times,serif" font-size="24">(*memFile)</text>
<text text-anchor="middle" x="555" y="-339.20000000000005" font-family="Times,serif" font-size="24">Write</text>
<text text-anchor="middle" x="555" y="-310.4" font-family="Times,serif" font-size="24.00">9103.77kB (88.49%)</text>
</a>
</g>
</g>
<!-- N2 -->
<g id="node2" class="node">
<title>N2</title>
<g id="a_node2"><a xlink:title="runtime.doInit (9103.77kB)">
<polygon fill="#edd6d5" stroke="#b20600" points="603.99,-615.9 506.01,-615.9 506.01,-579.3 603.99,-579.3 603.99,-615.9"/>
<text text-anchor="middle" x="555" y="-604.8" font-family="Times,serif" font-size="8">runtime</text>
<text text-anchor="middle" x="555" y="-595.2" font-family="Times,serif" font-size="8">doInit</text>
<text text-anchor="middle" x="555" y="-585.6" font-family="Times,serif" font-size="8">0 of 9103.77kB (88.49%)</text>
</a>
</g>
</g><g id="NN1_0" class="node">
<title style="">NN1_0</title>
<g id="a_NN1_0"><a xlink:title="4572.98kB" style="">
<polygon fill="#f8f8f8" stroke="black" points="456.79,-241.2 393.21,-241.2 389.21,-237.2 389.21,-205.2 452.79,-205.2 456.79,-209.2 456.79,-241.2" style=""/>
<polyline fill="none" stroke="black" points="452.79,-237.2 389.21,-237.2 " style=""/>
<polyline fill="none" stroke="black" points="452.79,-237.2 452.79,-205.2 " style=""/>
<polyline fill="none" stroke="black" points="452.79,-237.2 456.79,-241.2 " style=""/>
<text text-anchor="middle" x="423" y="-220.8" font-family="Times,serif" font-size="8.00">144kB..1.02MB</text>
</a>
</g>
</g>
<!-- N5 -->
<g id="node5" class="node">
<title>N5</title>
<g id="a_node5"><a xlink:title="runtime/pprof.StartCPUProfile (1184.27kB)">
<polygon fill="#ede6df" stroke="#b27c4b" points="1457.82,-147.4 1324.18,-147.4 1324.18,-88.6 1457.82,-88.6 1457.82,-147.4"/>
<text text-anchor="middle" x="1391" y="-130.60000000000002" font-family="Times,serif" font-size="14">pprof</text>
<text text-anchor="middle" x="1391" y="-113.79999999999995" font-family="Times,serif" font-size="14">StartCPUProfile</text>
<text text-anchor="middle" x="1391" y="-97" font-family="Times,serif" font-size="14">1184.27kB (11.51%)</text>
</a>
</g>
</g><g id="edge1" class="edge">
<title style="">N1-&gt;NN1_0</title>
<g id="a_edge1"><a xlink:title="4572.98kB" style="">
<path fill="none" stroke="black" d="M456.33,-299.1C450.61,-293.48 445.3,-287.5 440.66,-281.2 434.24,-272.47 430.11,-261.35 427.48,-251.26"/>
<polygon fill="black" stroke="black" points="430.84,-250.25 425.25,-241.25 424.01,-251.77 430.84,-250.25" style=""/>
</a>
</g>
<g id="a_edge1-label"><a xlink:title="4572.98kB" style="">
<text text-anchor="middle" x="473.67" y="-268.6" font-family="Times,serif" font-size="14.00"> 4572.98kB</text>
</a>
</g>
</g>
<!-- N2&#45;&gt;N5 -->
<g id="NN1_1" class="node">
<title style="">NN1_1</title>
<g id="a_NN1_1"><a xlink:title="1595.23kB" style="">
<polygon fill="#f8f8f8" stroke="black" points="538,-241.2 488,-241.2 484,-237.2 484,-205.2 534,-205.2 538,-209.2 538,-241.2" style=""/>
<polyline fill="none" stroke="black" points="534,-237.2 484,-237.2 " style=""/>
<polyline fill="none" stroke="black" points="534,-237.2 534,-205.2 " style=""/>
<polyline fill="none" stroke="black" points="534,-237.2 538,-241.2 " style=""/>
<text text-anchor="middle" x="511" y="-220.8" font-family="Times,serif" font-size="8.00">1.48MB</text>
</a>
</g>
</g>
<!-- N3 -->
<g id="node3" class="node">
<title>N3</title>
<g id="a_node3"><a xlink:title="runtime.main (9103.77kB)">
<polygon fill="#edd6d5" stroke="#b20600" points="603.99,-743.8 506.01,-743.8 506.01,-707.2 603.99,-707.2 603.99,-743.8"/>
<text text-anchor="middle" x="555" y="-732.7" font-family="Times,serif" font-size="8.00">runtime</text>
<text text-anchor="middle" x="555" y="-723.1" font-family="Times,serif" font-size="8.00">main</text>
<text text-anchor="middle" x="555" y="-713.5" font-family="Times,serif" font-size="8.00">0 of 9103.77kB (88.49%)</text>
</a>
</g>
</g><g id="edge2" class="edge">
<title style="">N1-&gt;NN1_1</title>
<g id="a_edge2"><a xlink:title="1595.23kB" style="">
<path fill="none" stroke="black" d="M517.71,-298.78C515.29,-292.99 513.21,-287.08 511.66,-281.2 509.17,-271.74 508.5,-261.1 508.62,-251.58"/>
<polygon fill="black" stroke="black" points="512.13,-251.59 509.04,-241.45 505.13,-251.3 512.13,-251.59" style=""/>
</a>
</g>
<g id="a_edge2-label"><a xlink:title="1595.23kB" style="">
<text text-anchor="middle" x="544.67" y="-268.6" font-family="Times,serif" font-size="14.00"> 1595.23kB</text>
</a>
</g>
</g>
<!-- N18 -->
<g id="node18" class="node">
<title>N18</title>
<g id="a_node18"><a xlink:title="github.com/swaggo/files.init0.7999999999999545 (1595.23kB)">
<polygon fill="#ede2da" stroke="#b26328" points="1147.99,-521.8 1050.01,-521.8 1050.01,-475 1147.99,-475 1147.99,-521.8"/>
<text text-anchor="middle" x="1099" y="-510.4" font-family="Times,serif" font-size="8.00">files</text>
<text text-anchor="middle" x="1099" y="-500.8" font-family="Times,serif" font-size="8.00">init</text>
<text text-anchor="middle" x="1099" y="-491.2" font-family="Times,serif" font-size="8.00">8</text>
<text text-anchor="middle" x="1099" y="-481.6" font-family="Times,serif" font-size="8.00">0 of 1595.23kB (15.51%)</text>
</a>
</g>
</g><g id="NN1_2" class="node">
<title style="">NN1_2</title>
<g id="a_NN1_2"><a xlink:title="1588.17kB" style="">
<polygon fill="#f8f8f8" stroke="black" points="626,-241.2 576,-241.2 572,-237.2 572,-205.2 622,-205.2 626,-209.2 626,-241.2" style=""/>
<polyline fill="none" stroke="black" points="622,-237.2 572,-237.2 " style=""/>
<polyline fill="none" stroke="black" points="622,-237.2 622,-205.2 " style=""/>
<polyline fill="none" stroke="black" points="622,-237.2 626,-241.2 " style=""/>
<text text-anchor="middle" x="599" y="-220.8" font-family="Times,serif" font-size="8.00">1.47MB</text>
</a>
</g>
</g>
<!-- N3&#45;&gt;N18 -->
<g id="edge3" class="edge">
<title style="">N1-&gt;NN1_2</title>
<g id="a_edge3"><a xlink:title="1588.17kB" style="">
<path fill="none" stroke="black" d="M574.68,-299.14C580.15,-282.28 585.82,-264.83 590.3,-251.01"/>
<polygon fill="black" stroke="black" points="593.72,-251.82 593.48,-241.22 587.06,-249.66 593.72,-251.82" style=""/>
</a>
</g>
<g id="a_edge3-label"><a xlink:title="1588.17kB" style="">
<text text-anchor="middle" x="617.67" y="-268.6" font-family="Times,serif" font-size="14.00"> 1588.17kB</text>
</a>
</g>
</g>
<!-- N33 -->
<g id="NN1_3" class="node">
<title style="">NN1_3</title>
<g id="a_NN1_3"><a xlink:title="1347.38kB" style="">
<polygon fill="#f8f8f8" stroke="black" points="714,-241.2 664,-241.2 660,-237.2 660,-205.2 710,-205.2 714,-209.2 714,-241.2" style=""/>
<polyline fill="none" stroke="black" points="710,-237.2 660,-237.2 " style=""/>
<polyline fill="none" stroke="black" points="710,-237.2 710,-205.2 " style=""/>
<polyline fill="none" stroke="black" points="710,-237.2 714,-241.2 " style=""/>
<text text-anchor="middle" x="687" y="-220.8" font-family="Times,serif" font-size="8.00">1.20MB</text>
</a>
</g>
</g>
<!-- N3&#45;&gt;N33 -->
<g id="edge4" class="edge">
<title style="">N1-&gt;NN1_3</title>
<g id="a_edge4"><a xlink:title="1347.38kB" style="">
<path fill="none" stroke="black" d="M636.74,-299.14C642.85,-293.36 648.69,-287.35 654,-281.2 662.01,-271.92 669.1,-260.42 674.63,-250.19"/>
<polygon fill="black" stroke="black" points="677.77,-251.73 679.26,-241.24 671.56,-248.51 677.77,-251.73" style=""/>
</a>
</g>
<g id="a_edge4-label"><a xlink:title="1347.38kB" style="">
<text text-anchor="middle" x="697.67" y="-268.6" font-family="Times,serif" font-size="14.00"> 1347.38kB</text>
</a>
</g>
</g>
<!-- N4 -->
<g id="node4" class="node">
<title>N4</title>
<g id="a_node4"><a xlink:title="net/http.HandlerFunc.ServeHTTP (1184.27kB)">
<polygon fill="#ede6df" stroke="#b27c4b" points="1263.99,-384.2 1166.01,-384.2 1166.01,-337.4 1263.99,-337.4 1263.99,-384.2"/>
<text text-anchor="middle" x="1215" y="-372.79999999999995" font-family="Times,serif" font-size="8">http</text>
<text text-anchor="middle" x="1215" y="-363.20000000000005" font-family="Times,serif" font-size="8">HandlerFunc</text>
<text text-anchor="middle" x="1215" y="-353.6" font-family="Times,serif" font-size="8">ServeHTTP</text>
<text text-anchor="middle" x="1215" y="-344" font-family="Times,serif" font-size="8">0 of 1184.27kB (11.51%)</text>
</a>
</g>
</g>
<!-- N23 -->

<!-- N4&#45;&gt;N23 -->
<g id="edge12" class="edge">
<title style="">N2-&gt;N10</title>
<g id="a_edge12"><a xlink:title="runtime.doInit -&gt; github.com/swaggo/files.init.10 (1347.38kB)" style="">
<path fill="none" stroke="#b2723d" d="M505.56,-594.07C454.43,-590.2 372.95,-580.52 306.66,-556.4 287.01,-549.25 266.89,-537.97 250.21,-527.32"/>
<polygon fill="#b2723d" stroke="#b2723d" points="252.1,-524.38 241.82,-521.84 248.27,-530.24 252.1,-524.38" style=""/>
</a>
</g>
<g id="a_edge12-label"><a xlink:title="runtime.doInit -&gt; github.com/swaggo/files.init.10 (1347.38kB)" style="">
<text text-anchor="middle" x="339.67" y="-543.8" font-family="Times,serif" font-size="14.00"> 1347.38kB</text>
</a>
</g>
</g>
<!-- N26 -->

<!-- N5&#45;&gt;N26 -->
<g id="edge14" class="edge">
<title style="">N2-&gt;N11</title>
<g id="a_edge14"><a xlink:title="runtime.doInit -&gt; github.com/swaggo/files.init.11 (1197.01kB)" style="">
<path fill="none" stroke="#b27c4a" d="M505.95,-588.87C474.96,-582.76 434.68,-572.52 401.66,-556.4 386.64,-549.06 371.67,-538.46 359.12,-528.38"/>
<polygon fill="#b27c4a" stroke="#b27c4a" points="361.19,-525.55 351.25,-521.88 356.73,-530.94 361.19,-525.55" style=""/>
</a>
</g>
<g id="a_edge14-label"><a xlink:title="runtime.doInit -&gt; github.com/swaggo/files.init.11 (1197.01kB)" style="">
<text text-anchor="middle" x="434.67" y="-543.8" font-family="Times,serif" font-size="14.00"> 1197.01kB</text>
</a>
</g>
</g>
<!-- N6 -->
<g id="node6" class="node">
<title>N6</title>
<g id="a_node6"><a xlink:title="net/http.(*conn).serve (1184.27kB)">
<polygon fill="#ede6df" stroke="#b27c4b" points="1263.99,-748.9 1166.01,-748.9 1166.01,-702.1 1263.99,-702.1 1263.99,-748.9"/>
<text text-anchor="middle" x="1215" y="-737.5" font-family="Times,serif" font-size="8">http</text>
<text text-anchor="middle" x="1215" y="-727.9" font-family="Times,serif" font-size="8">(*conn)</text>
<text text-anchor="middle" x="1215" y="-718.3" font-family="Times,serif" font-size="8">serve</text>
<text text-anchor="middle" x="1215" y="-708.7" font-family="Times,serif" font-size="8.00">0 of 1184.27kB (11.51%)</text>
</a>
</g>
</g>
<!-- N13 -->
<g id="node13" class="node">
<title>N13</title>
<g id="a_node13"><a xlink:title="github.com/swaggo/files.init0.12999999999999545 (683.75kB)">
<polygon fill="#ede9e5" stroke="#b29877" points="599.99,-521.8 510.01,-521.8 510.01,-475 599.99,-475 599.99,-521.8"/>
<text text-anchor="middle" x="555" y="-510.4" font-family="Times,serif" font-size="8.00">files</text>
<text text-anchor="middle" x="555" y="-500.79999999999995" font-family="Times,serif" font-size="8.00">init</text>
<text text-anchor="middle" x="555" y="-491.20000000000005" font-family="Times,serif" font-size="8.00">13</text>
<text text-anchor="middle" x="555" y="-481.6" font-family="Times,serif" font-size="8.00">0 of 683.75kB (6.65%)</text>
</a>
</g>
</g><g id="edge10" class="edge">
<title style="">N2-&gt;N12</title>
<g id="a_edge10"><a xlink:title="runtime.doInit -&gt; github.com/swaggo/files.init.12 (1588.17kB)" style="">
<path fill="none" stroke="#b26328" d="M518.58,-579.12C507.38,-572.82 495.44,-565.09 485.66,-556.4 477.03,-548.73 469.02,-539.07 462.33,-529.89"/>
<polygon fill="#b26328" stroke="#b26328" points="465.17,-527.85 456.57,-521.67 459.44,-531.86 465.17,-527.85" style=""/>
</a>
</g>
<g id="a_edge10-label"><a xlink:title="runtime.doInit -&gt; github.com/swaggo/files.init.12 (1588.17kB)" style="">
<text text-anchor="middle" x="518.67" y="-543.8" font-family="Times,serif" font-size="14.00"> 1588.17kB</text>
</a>
</g>
</g>
<!-- N6&#45;&gt;N13 -->

<!-- N50 -->
<g id="edge27" class="edge">
<title style="">N2-&gt;N13</title>
<g id="a_edge27"><a xlink:title="runtime.doInit -&gt; github.com/swaggo/files.init.13 (683.75kB)" style="">
<path fill="none" stroke="#b29877" d="M555,-579.22C555,-566.18 555,-547.93 555,-532.17"/>
<polygon fill="#b29877" stroke="#b29877" points="558.5,-531.76 555,-521.76 551.5,-531.76 558.5,-531.76" style=""/>
</a>
</g>
<g id="a_edge27-label"><a xlink:title="runtime.doInit -&gt; github.com/swaggo/files.init.13 (683.75kB)" style="">
<text text-anchor="middle" x="584.17" y="-543.8" font-family="Times,serif" font-size="14.00"> 683.75kB</text>
</a>
</g>
</g>
<!-- N6&#45;&gt;N50 -->

<!-- N51 -->
<g id="edge25" class="edge">
<title style="">N2-&gt;N14</title>
<g id="a_edge25"><a xlink:title="runtime.doInit -&gt; github.com/swaggo/files.init.14 (794.19kB)" style="">
<path fill="none" stroke="#b2926d" d="M586.03,-579.18C596.39,-572.68 607.66,-564.82 617,-556.4 625.75,-548.51 634.19,-538.87 641.4,-529.77"/>
<polygon fill="#b2926d" stroke="#b2926d" points="644.33,-531.7 647.65,-521.64 638.78,-527.44 644.33,-531.7" style=""/>
</a>
</g>
<g id="a_edge25-label"><a xlink:title="runtime.doInit -&gt; github.com/swaggo/files.init.14 (794.19kB)" style="">
<text text-anchor="middle" x="662.17" y="-543.8" font-family="Times,serif" font-size="14.00"> 794.19kB</text>
</a>
</g>
</g>
<!-- N6&#45;&gt;N51 -->

<!-- N7 -->
<g id="node7" class="node">
<title>N7</title>
<g id="a_node7"><a xlink:title="github.com/iggyster/lets-go-chat/internal/app.(*App).ServeHTTP (1184.27kB)">
<polygon fill="#ede6df" stroke="#b27c4b" points="1263.99,-521.8 1166.01,-521.8 1166.01,-475 1263.99,-475 1263.99,-521.8"/>
<text text-anchor="middle" x="1215" y="-510.4" font-family="Times,serif" font-size="8">app</text>
<text text-anchor="middle" x="1215" y="-500.8" font-family="Times,serif" font-size="8">(*App)</text>
<text text-anchor="middle" x="1215" y="-491.2" font-family="Times,serif" font-size="8">ServeHTTP</text>
<text text-anchor="middle" x="1215" y="-481.6" font-family="Times,serif" font-size="8.00">0 of 1184.27kB (11.51%)</text>
</a>
</g>
</g><g id="edge33" class="edge">
<title style="">N2-&gt;N15</title>
<g id="a_edge33"><a xlink:title="runtime.doInit -&gt; github.com/swaggo/files.init.15 (587.37kB)" style="">
<path fill="none" stroke="#b29c7f" d="M604.24,-587.08C631.84,-580.63 666.36,-570.65 695,-556.4 710.14,-548.87 725.35,-538.23 738.14,-528.17"/>
<polygon fill="#b29c7f" stroke="#b29c7f" points="740.58,-530.69 746.17,-521.69 736.19,-525.25 740.58,-530.69" style=""/>
</a>
</g>
<g id="a_edge33-label"><a xlink:title="runtime.doInit -&gt; github.com/swaggo/files.init.15 (587.37kB)" style="">
<text text-anchor="middle" x="750.17" y="-543.8" font-family="Times,serif" font-size="14.00"> 587.37kB</text>
</a>
</g>
</g>
<!-- N8 -->
<g id="node8" class="node">
<title>N8</title>
<g id="a_node8"><a xlink:title="github.com/iggyster/lets-go-chat/internal/middleware.Logger.func1 (1184.27kB)">
<polygon fill="#ede6df" stroke="#b27c4b" points="1146.99,-246.6 1049.01,-246.6 1049.01,-199.8 1146.99,-199.8 1146.99,-246.6"/>
<text text-anchor="middle" x="1098" y="-235.20000000000005" font-family="Times,serif" font-size="8">middleware</text>
<text text-anchor="middle" x="1098" y="-225.60000000000002" font-family="Times,serif" font-size="8">Logger</text>
<text text-anchor="middle" x="1098" y="-216" font-family="Times,serif" font-size="8">func1</text>
<text text-anchor="middle" x="1098" y="-206.4" font-family="Times,serif" font-size="8.00">0 of 1184.27kB (11.51%)</text>
</a>
</g>
</g>
<!-- N9 -->
<g id="node9" class="node">
<title>N9</title>
<g id="a_node9"><a xlink:title="github.com/iggyster/lets-go-chat/internal/middleware.Recover.func1 (1184.27kB)">
<polygon fill="#ede6df" stroke="#b27c4b" points="1292.99,-246.6 1195.01,-246.6 1195.01,-199.8 1292.99,-199.8 1292.99,-246.6"/>
<text text-anchor="middle" x="1244" y="-235.2" font-family="Times,serif" font-size="8">middleware</text>
<text text-anchor="middle" x="1244" y="-225.6" font-family="Times,serif" font-size="8">Recover</text>
<text text-anchor="middle" x="1244" y="-216" font-family="Times,serif" font-size="8">func1</text>
<text text-anchor="middle" x="1244" y="-206.4" font-family="Times,serif" font-size="8.00">0 of 1184.27kB (11.51%)</text>
</a>
</g>
</g><g id="edge31" class="edge">
<title style="">N2-&gt;N16</title>
<g id="a_edge31"><a xlink:title="runtime.doInit -&gt; github.com/swaggo/files.init.16 (645.97kB)" style="">
<path fill="none" stroke="#b29a7a" d="M604.38,-593.06C651.48,-588.49 723.83,-578.34 783,-556.4 802.65,-549.11 822.84,-537.81 839.59,-527.18"/>
<polygon fill="#b29a7a" stroke="#b29a7a" points="841.54,-530.09 848.02,-521.71 837.73,-524.22 841.54,-530.09" style=""/>
</a>
</g>
<g id="a_edge31-label"><a xlink:title="runtime.doInit -&gt; github.com/swaggo/files.init.16 (645.97kB)" style="">
<text text-anchor="middle" x="845.17" y="-543.8" font-family="Times,serif" font-size="14.00"> 645.97kB</text>
</a>
</g>
</g>
<!-- N8&#45;&gt;N9 -->

<!-- N49 -->
<g id="edge29" class="edge">
<title style="">N2-&gt;N17</title>
<g id="a_edge29"><a xlink:title="runtime.doInit -&gt; github.com/swaggo/files.init.18 (664.70kB)" style="">
<path fill="none" stroke="#b29978" d="M604.02,-595.9C668.33,-593.78 784.01,-585.76 878,-556.4 900.52,-549.36 923.91,-537.78 943.22,-526.89"/>
<polygon fill="#b29978" stroke="#b29978" points="945.15,-529.81 952.07,-521.79 941.66,-523.75 945.15,-529.81" style=""/>
</a>
</g>
<g id="a_edge29-label"><a xlink:title="runtime.doInit -&gt; github.com/swaggo/files.init.18 (664.70kB)" style="">
<text text-anchor="middle" x="947.17" y="-543.8" font-family="Times,serif" font-size="14.00"> 664.70kB</text>
</a>
</g>
</g>
<!-- N8&#45;&gt;N49 -->

<!-- N22 -->
<g id="edge8" class="edge">
<title style="">N2-&gt;N18</title>
<g id="a_edge8"><a xlink:title="runtime.doInit -&gt; github.com/swaggo/files.init.8 (1595.23kB)" style="">
<path fill="none" stroke="#b26328" d="M604.13,-597.49C684.32,-597.73 847.7,-593.09 980,-556.4 1004.92,-549.49 1031,-537.59 1052.37,-526.45"/>
<polygon fill="#b26328" stroke="#b26328" points="1054.04,-529.52 1061.22,-521.74 1050.75,-523.35 1054.04,-529.52" style=""/>
</a>
</g>
<g id="a_edge8-label"><a xlink:title="runtime.doInit -&gt; github.com/swaggo/files.init.8 (1595.23kB)" style="">
<text text-anchor="middle" x="1056.67" y="-543.8" font-family="Times,serif" font-size="14.00"> 1595.23kB</text>
</a>
</g>
</g>
<!-- N9&#45;&gt;N22 -->

<!-- N24 -->
<g id="edge6" class="edge">
<title style="">N3-&gt;N2</title>
<g id="a_edge6"><a xlink:title="runtime.main -&gt; runtime.doInit (9103.77kB)" style="">
<path fill="none" stroke="#b20600" stroke-width="5" d="M555,-706.99C555,-686.04 555,-650.71 555,-626.1"/>
<polygon fill="#b20600" stroke="#b20600" stroke-width="5" points="559.38,-625.96 555,-615.96 550.63,-625.96 559.38,-625.96" style=""/>
</a>
</g>
<g id="a_edge6-label"><a xlink:title="runtime.main -&gt; runtime.doInit (9103.77kB)" style="">
<text text-anchor="middle" x="587.67" y="-643" font-family="Times,serif" font-size="14.00"> 9103.77kB</text>
</a>
</g>
</g>
<!-- N9&#45;&gt;N24 -->

<!-- N10 -->
<g id="node10" class="node">
<title>N10</title>
<g id="a_node10"><a xlink:title="github.com/swaggo/files.init0.10000000000002274 (1347.38kB)">
<polygon fill="#ede4dd" stroke="#b2723d" points="259.99,-521.8 162.01,-521.8 162.01,-475 259.99,-475 259.99,-521.8"/>
<text text-anchor="middle" x="211" y="-510.4" font-family="Times,serif" font-size="8">files</text>
<text text-anchor="middle" x="211" y="-500.8" font-family="Times,serif" font-size="8">init</text>
<text text-anchor="middle" x="211" y="-491.2" font-family="Times,serif" font-size="8">10</text>
<text text-anchor="middle" x="211" y="-481.6" font-family="Times,serif" font-size="8">0 of 1347.38kB (13.10%)</text>
</a>
</g>
</g>
<!-- N11 -->
<g id="node11" class="node">
<title>N11</title>
<g id="a_node11"><a xlink:title="github.com/swaggo/files.init0.11000000000001364 (1197.01kB)">
<polygon fill="#ede5df" stroke="#b27c4a" points="375.99,-521.8 278.01,-521.8 278.01,-475 375.99,-475 375.99,-521.8"/>
<text text-anchor="middle" x="327" y="-510.4" font-family="Times,serif" font-size="8">files</text>
<text text-anchor="middle" x="327" y="-500.8" font-family="Times,serif" font-size="8">init</text>
<text text-anchor="middle" x="327" y="-491.2" font-family="Times,serif" font-size="8">11</text>
<text text-anchor="middle" x="327" y="-481.6" font-family="Times,serif" font-size="8.00">0 of 1197.01kB (11.63%)</text>
</a>
</g>
</g><g id="edge19" class="edge">
<title style="">N4-&gt;N8</title>
<g id="a_edge19"><a xlink:title="net/http.HandlerFunc.ServeHTTP -&gt; github.com/iggyster/lets-go-chat/internal/middleware.Logger.func1 (1184.27kB)" style="">
<path fill="none" stroke="#b27c4b" d="M1165.66,-350.22C1128.06,-340.05 1078.77,-319.87 1054.66,-281.2 1048.97,-272.07 1052.08,-262.61 1058.68,-254.07"/>
<polygon fill="#b27c4b" stroke="#b27c4b" points="1061.41,-256.27 1065.58,-246.53 1056.25,-251.54 1061.41,-256.27" style=""/>
</a>
</g>
<g id="a_edge19-label"><a xlink:title="net/http.HandlerFunc.ServeHTTP -&gt; github.com/iggyster/lets-go-chat/internal/middleware.Logger.func1 (1184.27kB)" style="">
<text text-anchor="middle" x="1086.67" y="-268.6" font-family="Times,serif" font-size="14.00"> 1184.27kB</text>
</a>
</g>
</g>
<!-- N12 -->
<g id="node12" class="node">
<title>N12</title>
<g id="a_node12"><a xlink:title="github.com/swaggo/files.init0.12000000000000455 (1588.17kB)">
<polygon fill="#ede2da" stroke="#b26328" points="491.99,-521.8 394.01,-521.8 394.01,-475 491.99,-475 491.99,-521.8"/>
<text text-anchor="middle" x="443" y="-510.4" font-family="Times,serif" font-size="8">files</text>
<text text-anchor="middle" x="443" y="-500.8" font-family="Times,serif" font-size="8">init</text>
<text text-anchor="middle" x="443" y="-491.2" font-family="Times,serif" font-size="8">12</text>
<text text-anchor="middle" x="443" y="-481.6" font-family="Times,serif" font-size="8.00">0 of 1588.17kB (15.44%)</text>
</a>
</g>
</g>
<!-- N56 -->
<g id="edge20" class="edge">
<title style="">N4-&gt;N9</title>
<g id="a_edge20"><a xlink:title="net/http.HandlerFunc.ServeHTTP -&gt; github.com/iggyster/lets-go-chat/internal/middleware.Recover.func1 (1184.27kB)" style="">
<path fill="none" stroke="#b27c4b" d="M1209.72,-337.51C1206.07,-317.72 1203.24,-288.32 1211.66,-264.4 1212.76,-261.27 1214.22,-258.21 1215.91,-255.26"/>
<polygon fill="#b27c4b" stroke="#b27c4b" points="1218.92,-257.05 1221.55,-246.79 1213.09,-253.18 1218.92,-257.05" style=""/>
</a>
</g>
<g id="a_edge20-label"><a xlink:title="net/http.HandlerFunc.ServeHTTP -&gt; github.com/iggyster/lets-go-chat/internal/middleware.Recover.func1 (1184.27kB)" style="">
<text text-anchor="middle" x="1243.67" y="-268.6" font-family="Times,serif" font-size="14.00"> 1184.27kB</text>
</a>
</g>
</g>
<!-- N12&#45;&gt;N56 -->

<!-- N52 -->
<g id="edge21" class="edge">
<title style="">N4-&gt;N20</title>
<g id="a_edge21"><a xlink:title="net/http.HandlerFunc.ServeHTTP -&gt; net/http/pprof.Profile (1184.27kB)" style="">
<path fill="none" stroke="#b27c4b" d="M1264.02,-338.02C1291.52,-324.27 1325.36,-304.68 1351,-281.2 1360.65,-272.36 1369.3,-260.8 1376.06,-250.4"/>
<polygon fill="#b27c4b" stroke="#b27c4b" points="1379.18,-252 1381.49,-241.66 1373.24,-248.31 1379.18,-252" style=""/>
</a>
</g>
<g id="a_edge21-label"><a xlink:title="net/http.HandlerFunc.ServeHTTP -&gt; net/http/pprof.Profile (1184.27kB)" style="">
<text text-anchor="middle" x="1397.67" y="-268.6" font-family="Times,serif" font-size="14.00"> 1184.27kB</text>
</a>
</g>
</g>
<!-- N13&#45;&gt;N52 -->

<!-- N14 -->
<g id="node14" class="node">
<title>N14</title>
<g id="a_node14"><a xlink:title="github.com/swaggo/files.init0.13999999999998636 (794.19kB)">
<polygon fill="#ede8e3" stroke="#b2926d" points="707.99,-521.8 618.01,-521.8 618.01,-475 707.99,-475 707.99,-521.8"/>
<text text-anchor="middle" x="663" y="-510.4" font-family="Times,serif" font-size="8.00">files</text>
<text text-anchor="middle" x="663" y="-500.8" font-family="Times,serif" font-size="8.00">init</text>
<text text-anchor="middle" x="663" y="-491.2" font-family="Times,serif" font-size="8.00">14</text>
<text text-anchor="middle" x="663" y="-481.6" font-family="Times,serif" font-size="8.00">0 of 794.19kB (7.72%)</text>
</a>
</g>
</g><g id="NN5_0" class="node">
<title style="">NN5_0</title>
<g id="a_NN5_0"><a xlink:title="1184.27kB" style="">
<polygon fill="#f8f8f8" stroke="black" points="1418,-36 1368,-36 1364,-32 1364,0 1414,0 1418,-4 1418,-36" style=""/>
<polyline fill="none" stroke="black" points="1414,-32 1364,-32 " style=""/>
<polyline fill="none" stroke="black" points="1414,-32 1414,0 " style=""/>
<polyline fill="none" stroke="black" points="1414,-32 1418,-36 " style=""/>
<text text-anchor="middle" x="1391" y="-15.6" font-family="Times,serif" font-size="8.00">1MB</text>
</a>
</g>
</g>
<!-- N14&#45;&gt;N13 -->
<g id="edge5" class="edge">
<title style="">N5-&gt;NN5_0</title>
<g id="a_edge5"><a xlink:title="1184.27kB" style="">
<path fill="none" stroke="black" d="M1391,-88.65C1391,-75.41 1391,-59.69 1391,-46.54"/>
<polygon fill="black" stroke="black" points="1394.5,-46.21 1391,-36.21 1387.5,-46.21 1394.5,-46.21" style=""/>
</a>
</g>
<g id="a_edge5-label"><a xlink:title="1184.27kB" style="">
<text text-anchor="middle" x="1423.67" y="-58.2" font-family="Times,serif" font-size="14.00"> 1184.27kB</text>
</a>
</g>
</g>
<!-- N21 -->

<!-- N14&#45;&gt;N21 -->

<!-- N15 -->
<g id="node15" class="node">
<title>N15</title>
<g id="a_node15"><a xlink:title="github.com/swaggo/files.init0.14999999999997726 (587.37kB)">
<polygon fill="#edeae6" stroke="#b29c7f" points="815.99,-521.8 726.01,-521.8 726.01,-475 815.99,-475 815.99,-521.8"/>
<text text-anchor="middle" x="771" y="-510.4" font-family="Times,serif" font-size="8.00">files</text>
<text text-anchor="middle" x="771" y="-500.8" font-family="Times,serif" font-size="8.00">init</text>
<text text-anchor="middle" x="771" y="-491.2" font-family="Times,serif" font-size="8.00">15</text>
<text text-anchor="middle" x="771" y="-481.6" font-family="Times,serif" font-size="8.00">0 of 587.37kB (5.71%)</text>
</a>
</g>
</g><g id="edge18" class="edge">
<title style="">N6-&gt;N19</title>
<g id="a_edge18"><a xlink:title="net/http.(*conn).serve -&gt; net/http.serverHandler.ServeHTTP (1184.27kB)" style="">
<path fill="none" stroke="#b27c4b" d="M1215,-702.28C1215,-682.54 1215,-653.42 1215,-631.07"/>
<polygon fill="#b27c4b" stroke="#b27c4b" points="1218.5,-631.02 1215,-621.02 1211.5,-631.02 1218.5,-631.02" style=""/>
</a>
</g>
<g id="a_edge18-label"><a xlink:title="net/http.(*conn).serve -&gt; net/http.serverHandler.ServeHTTP (1184.27kB)" style="">
<text text-anchor="middle" x="1247.67" y="-643" font-family="Times,serif" font-size="14.00"> 1184.27kB</text>
</a>
</g>
</g>
<!-- N15&#45;&gt;N6 -->

<!-- N16 -->
<g id="node16" class="node">
<title>N16</title>
<g id="a_node16"><a xlink:title="github.com/swaggo/files.init0.15999999999996817 (645.97kB)">
<polygon fill="#ede9e5" stroke="#b29a7a" points="923.99,-521.8 834.01,-521.8 834.01,-475 923.99,-475 923.99,-521.8"/>
<text text-anchor="middle" x="879" y="-510.4" font-family="Times,serif" font-size="8.00">files</text>
<text text-anchor="middle" x="879" y="-500.8" font-family="Times,serif" font-size="8.00">init</text>
<text text-anchor="middle" x="879" y="-491.2" font-family="Times,serif" font-size="8.00">16</text>
<text text-anchor="middle" x="879" y="-481.6" font-family="Times,serif" font-size="8.00">0 of 645.97kB (6.28%)</text>
</a>
</g>
</g><g id="edge15" class="edge">
<title style="">N7-&gt;N4</title>
<g id="a_edge15"><a xlink:title="github.com/iggyster/lets-go-chat/internal/app.(*App).ServeHTTP -&gt; net/http.HandlerFunc.ServeHTTP (1184.27kB)" style="">
<path fill="none" stroke="#b27c4b" d="M1215,-475.01C1215,-453.02 1215,-419.25 1215,-394.31"/>
<polygon fill="#b27c4b" stroke="#b27c4b" points="1218.5,-394.22 1215,-384.22 1211.5,-394.22 1218.5,-394.22" style=""/>
</a>
</g>
<g id="a_edge15-label"><a xlink:title="github.com/iggyster/lets-go-chat/internal/app.(*App).ServeHTTP -&gt; net/http.HandlerFunc.ServeHTTP (1184.27kB)" style="">
<text text-anchor="middle" x="1247.67" y="-444.6" font-family="Times,serif" font-size="14.00"> 1184.27kB</text>
</a>
</g>
</g>
<!-- N30 -->
<g id="edge16" class="edge">
<title style="">N8-&gt;N4</title>
<g id="a_edge16"><a xlink:title="github.com/iggyster/lets-go-chat/internal/middleware.Logger.func1 -&gt; net/http.HandlerFunc.ServeHTTP (1184.27kB)" style="">
<path fill="none" stroke="#b27c4b" d="M1112.23,-246.49C1119.44,-257.29 1128.58,-270.25 1137.66,-281.2 1151.82,-298.26 1169,-315.97 1183.56,-330.25"/>
<polygon fill="#b27c4b" stroke="#b27c4b" points="1181.3,-332.93 1190.91,-337.39 1186.17,-327.91 1181.3,-332.93" style=""/>
</a>
</g>
<g id="a_edge16-label"><a xlink:title="github.com/iggyster/lets-go-chat/internal/middleware.Logger.func1 -&gt; net/http.HandlerFunc.ServeHTTP (1184.27kB)" style="">
<text text-anchor="middle" x="1169.67" y="-268.6" font-family="Times,serif" font-size="14.00"> 1184.27kB</text>
</a>
</g>
</g>
<!-- N16&#45;&gt;N30 -->
<g id="edge17" class="edge">
<title style="">N9-&gt;N4</title>
<g id="a_edge17"><a xlink:title="github.com/iggyster/lets-go-chat/internal/middleware.Recover.func1 -&gt; net/http.HandlerFunc.ServeHTTP (1184.27kB)" style="">
<path fill="none" stroke="#b27c4b" d="M1270.48,-246.5C1279.12,-256.54 1285.48,-268.89 1281,-281.2 1274.26,-299.71 1261.04,-316.88 1248.19,-330.43"/>
<polygon fill="#b27c4b" stroke="#b27c4b" points="1245.67,-328 1241.13,-337.57 1250.65,-332.92 1245.67,-328" style=""/>
</a>
</g>
<g id="a_edge17-label"><a xlink:title="github.com/iggyster/lets-go-chat/internal/middleware.Recover.func1 -&gt; net/http.HandlerFunc.ServeHTTP (1184.27kB)" style="">
<text text-anchor="middle" x="1314.67" y="-268.6" font-family="Times,serif" font-size="14.00"> 1184.27kB</text>
</a>
</g>
</g>
<!-- N17 -->
<g id="node17" class="node">
<title>N17</title>
<g id="a_node17"><a xlink:title="github.com/swaggo/files.init0.17999999999994998 (664.70kB)">
<polygon fill="#ede9e5" stroke="#b29978" points="1031.99,-521.8 942.01,-521.8 942.01,-475 1031.99,-475 1031.99,-521.8"/>
<text text-anchor="middle" x="987" y="-510.4" font-family="Times,serif" font-size="8.00">files</text>
<text text-anchor="middle" x="987" y="-500.8" font-family="Times,serif" font-size="8.00">init</text>
<text text-anchor="middle" x="987" y="-491.2" font-family="Times,serif" font-size="8.00">18</text>
<text text-anchor="middle" x="987" y="-481.6" font-family="Times,serif" font-size="8.00">0 of 664.70kB (6.46%)</text>
</a>
</g>
</g><g id="edge11" class="edge">
<title style="">N10-&gt;N1</title>
<g id="a_edge11"><a xlink:title="github.com/swaggo/files.init.10 -&gt; golang.org/x/net/webdav.(*memFile).Write (1347.38kB)" style="">
<path fill="none" stroke="#b2723d" d="M246.43,-475C265.32,-463.66 289.23,-450.25 311.66,-440.4 351.27,-423.01 395.98,-407.46 436.17,-394.89"/>
<polygon fill="#b2723d" stroke="#b2723d" points="437.23,-398.22 445.74,-391.92 435.15,-391.54 437.23,-398.22" style=""/>
</a>
</g>
<g id="a_edge11-label"><a xlink:title="github.com/swaggo/files.init.10 -&gt; golang.org/x/net/webdav.(*memFile).Write (1347.38kB)" style="">
<text text-anchor="middle" x="344.67" y="-444.6" font-family="Times,serif" font-size="14.00"> 1347.38kB</text>
</a>
</g>
</g>
<!-- N17&#45;&gt;N5 -->
<g id="edge13" class="edge">
<title style="">N11-&gt;N1</title>
<g id="a_edge13"><a xlink:title="github.com/swaggo/files.init.11 -&gt; golang.org/x/net/webdav.(*memFile).Write (1197.01kB)" style="">
<path fill="none" stroke="#b27c4a" d="M355.41,-474.95C369.8,-463.99 387.77,-450.93 404.66,-440.4 415.02,-433.95 425.96,-427.52 437.02,-421.29"/>
<polygon fill="#b27c4a" stroke="#b27c4a" points="438.88,-424.26 445.91,-416.33 435.47,-418.14 438.88,-424.26" style=""/>
</a>
</g>
<g id="a_edge13-label"><a xlink:title="github.com/swaggo/files.init.11 -&gt; golang.org/x/net/webdav.(*memFile).Write (1197.01kB)" style="">
<text text-anchor="middle" x="437.67" y="-444.6" font-family="Times,serif" font-size="14.00"> 1197.01kB</text>
</a>
</g>
</g>
<!-- N18&#45;&gt;N1 -->
<g id="edge9" class="edge">
<title style="">N12-&gt;N1</title>
<g id="a_edge9"><a xlink:title="github.com/swaggo/files.init.12 -&gt; golang.org/x/net/webdav.(*memFile).Write (1588.17kB)" style="">
<path fill="none" stroke="#b26328" d="M459,-475.16C466.84,-464.49 476.54,-451.62 485.66,-440.4 488.31,-437.14 491.04,-433.84 493.83,-430.51"/>
<polygon fill="#b26328" stroke="#b26328" points="496.61,-432.65 500.39,-422.75 491.26,-428.13 496.61,-432.65" style=""/>
</a>
</g>
<g id="a_edge9-label"><a xlink:title="github.com/swaggo/files.init.12 -&gt; golang.org/x/net/webdav.(*memFile).Write (1588.17kB)" style="">
<text text-anchor="middle" x="518.67" y="-444.6" font-family="Times,serif" font-size="14.00"> 1588.17kB</text>
</a>
</g>
</g>
<!-- N35 -->
<g id="edge26" class="edge">
<title style="">N13-&gt;N1</title>
<g id="a_edge26"><a xlink:title="github.com/swaggo/files.init.13 -&gt; golang.org/x/net/webdav.(*memFile).Write (683.75kB)" style="">
<path fill="none" stroke="#b29877" d="M555,-475.01C555,-463.22 555,-448.05 555,-432.66"/>
<polygon fill="#b29877" stroke="#b29877" points="558.5,-432.56 555,-422.56 551.5,-432.56 558.5,-432.56" style=""/>
</a>
</g>
<g id="a_edge26-label"><a xlink:title="github.com/swaggo/files.init.13 -&gt; golang.org/x/net/webdav.(*memFile).Write (683.75kB)" style="">
<text text-anchor="middle" x="584.17" y="-444.6" font-family="Times,serif" font-size="14.00"> 683.75kB</text>
</a>
</g>
</g>
<!-- N18&#45;&gt;N35 -->
<g id="edge24" class="edge">
<title style="">N14-&gt;N1</title>
<g id="a_edge24"><a xlink:title="github.com/swaggo/files.init.14 -&gt; golang.org/x/net/webdav.(*memFile).Write (794.19kB)" style="">
<path fill="none" stroke="#b2926d" d="M645.17,-475.01C635.33,-462.66 622.54,-446.6 609.69,-430.46"/>
<polygon fill="#b2926d" stroke="#b2926d" points="612.36,-428.2 603.39,-422.56 606.88,-432.56 612.36,-428.2" style=""/>
</a>
</g>
<g id="a_edge24-label"><a xlink:title="github.com/swaggo/files.init.14 -&gt; golang.org/x/net/webdav.(*memFile).Write (794.19kB)" style="">
<text text-anchor="middle" x="658.17" y="-444.6" font-family="Times,serif" font-size="14.00"> 794.19kB</text>
</a>
</g>
</g>
<!-- N19 -->
<g id="node19" class="node">
<title>N19</title>
<g id="a_node19"><a xlink:title="net/http.serverHandler.ServeHTTP (1184.27kB)">
<polygon fill="#ede6df" stroke="#b27c4b" points="1263.99,-621 1166.01,-621 1166.01,-574.2 1263.99,-574.2 1263.99,-621"/>
<text text-anchor="middle" x="1215" y="-609.6" font-family="Times,serif" font-size="8">http</text>
<text text-anchor="middle" x="1215" y="-600" font-family="Times,serif" font-size="8">serverHandler</text>
<text text-anchor="middle" x="1215" y="-590.4" font-family="Times,serif" font-size="8">ServeHTTP</text>
<text text-anchor="middle" x="1215" y="-580.8" font-family="Times,serif" font-size="8">0 of 1184.27kB (11.51%)</text>
</a>
</g>
</g><g id="edge32" class="edge">
<title style="">N15-&gt;N1</title>
<g id="a_edge32"><a xlink:title="github.com/swaggo/files.init.15 -&gt; golang.org/x/net/webdav.(*memFile).Write (587.37kB)" style="">
<path fill="none" stroke="#b29c7f" d="M741.08,-475.06C726.24,-464.25 707.92,-451.29 691,-440.4 684.47,-436.2 677.71,-431.96 670.85,-427.74"/>
<polygon fill="#b29c7f" stroke="#b29c7f" points="672.48,-424.64 662.12,-422.42 668.83,-430.61 672.48,-424.64" style=""/>
</a>
</g>
<g id="a_edge32-label"><a xlink:title="github.com/swaggo/files.init.15 -&gt; golang.org/x/net/webdav.(*memFile).Write (587.37kB)" style="">
<text text-anchor="middle" x="744.17" y="-444.6" font-family="Times,serif" font-size="14.00"> 587.37kB</text>
</a>
</g>
</g>
<!-- N19&#45;&gt;N4 -->
<g id="edge30" class="edge">
<title style="">N16-&gt;N1</title>
<g id="a_edge30"><a xlink:title="github.com/swaggo/files.init.16 -&gt; golang.org/x/net/webdav.(*memFile).Write (645.97kB)" style="">
<path fill="none" stroke="#b29a7a" d="M842.48,-475.01C823.37,-463.81 799.36,-450.52 777,-440.4 744.06,-425.49 707.38,-411.51 673.49,-399.58"/>
<polygon fill="#b29a7a" stroke="#b29a7a" points="674.6,-396.26 664,-396.27 672.29,-402.87 674.6,-396.26" style=""/>
</a>
</g>
<g id="a_edge30-label"><a xlink:title="github.com/swaggo/files.init.16 -&gt; golang.org/x/net/webdav.(*memFile).Write (645.97kB)" style="">
<text text-anchor="middle" x="837.17" y="-444.6" font-family="Times,serif" font-size="14.00"> 645.97kB</text>
</a>
</g>
</g>
<!-- N20 -->
<g id="node20" class="node">
<title>N20</title>
<g id="a_node20"><a xlink:title="net/http/pprof.Profile (1184.27kB)">
<polygon fill="#ede6df" stroke="#b27c4b" points="1439.99,-241.5 1342.01,-241.5 1342.01,-204.9 1439.99,-204.9 1439.99,-241.5"/>
<text text-anchor="middle" x="1391" y="-230.39999999999998" font-family="Times,serif" font-size="8">pprof</text>
<text text-anchor="middle" x="1391" y="-220.79999999999995" font-family="Times,serif" font-size="8">Profile</text>
<text text-anchor="middle" x="1391" y="-211.19999999999993" font-family="Times,serif" font-size="8">0 of 1184.27kB (11.51%)</text>
</a>
</g>
</g><g id="edge28" class="edge">
<title style="">N17-&gt;N1</title>
<g id="a_edge28"><a xlink:title="github.com/swaggo/files.init.18 -&gt; golang.org/x/net/webdav.(*memFile).Write (664.70kB)" style="">
<path fill="none" stroke="#b29978" d="M946.49,-475.07C924.37,-463.54 896.22,-449.94 870,-440.4 806.65,-417.35 733.75,-398.69 674.04,-385.34"/>
<polygon fill="#b29978" stroke="#b29978" points="674.72,-381.9 664.2,-383.16 673.2,-388.74 674.72,-381.9" style=""/>
</a>
</g>
<g id="a_edge28-label"><a xlink:title="github.com/swaggo/files.init.18 -&gt; golang.org/x/net/webdav.(*memFile).Write (664.70kB)" style="">
<text text-anchor="middle" x="938.17" y="-444.6" font-family="Times,serif" font-size="14.00"> 664.70kB</text>
</a>
</g>
</g>
<!-- N21&#45;&gt;N13 -->
<g id="edge7" class="edge">
<title style="">N18-&gt;N1</title>
<g id="a_edge7"><a xlink:title="github.com/swaggo/files.init.8 -&gt; golang.org/x/net/webdav.(*memFile).Write (1595.23kB)" style="">
<path fill="none" stroke="#b26328" d="M1055.84,-475.16C1031.47,-463.38 1000.14,-449.5 971,-440.4 873.08,-409.8 758.27,-389.21 674.1,-376.8"/>
<polygon fill="#b26328" stroke="#b26328" points="674.39,-373.3 663.99,-375.33 673.38,-380.23 674.39,-373.3" style=""/>
</a>
</g>
<g id="a_edge7-label"><a xlink:title="github.com/swaggo/files.init.8 -&gt; golang.org/x/net/webdav.(*memFile).Write (1595.23kB)" style="">
<text text-anchor="middle" x="1046.67" y="-444.6" font-family="Times,serif" font-size="14.00"> 1595.23kB</text>
</a>
</g>
</g>
<!-- N53 -->
<g id="edge22" class="edge">
<title style="">N19-&gt;N7</title>
<g id="a_edge22"><a xlink:title="net/http.serverHandler.ServeHTTP -&gt; github.com/iggyster/lets-go-chat/internal/app.(*App).ServeHTTP (1184.27kB)" style="">
<path fill="none" stroke="#b27c4b" d="M1215,-574.06C1215,-561.54 1215,-545.76 1215,-531.93"/>
<polygon fill="#b27c4b" stroke="#b27c4b" points="1218.5,-531.82 1215,-521.82 1211.5,-531.82 1218.5,-531.82" style=""/>
</a>
</g>
<g id="a_edge22-label"><a xlink:title="net/http.serverHandler.ServeHTTP -&gt; github.com/iggyster/lets-go-chat/internal/app.(*App).ServeHTTP (1184.27kB)" style="">
<text text-anchor="middle" x="1247.67" y="-543.8" font-family="Times,serif" font-size="14.00"> 1184.27kB</text>
</a>
</g>
</g>
<!-- N21&#45;&gt;N53 -->
<g id="edge23" class="edge">
<title style="">N20-&gt;N5</title>
<g id="a_edge23"><a xlink:title="net/http/pprof.Profile -&gt; runtime/pprof.StartCPUProfile (1184.27kB)" style="">
<path fill="none" stroke="#b27c4b" d="M1391,-204.69C1391,-191.86 1391,-173.94 1391,-157.8"/>
<polygon fill="#b27c4b" stroke="#b27c4b" points="1394.5,-157.52 1391,-147.52 1387.5,-157.52 1394.5,-157.52" style=""/>
</a>
</g>
<g id="a_edge23-label"><a xlink:title="net/http/pprof.Profile -&gt; runtime/pprof.StartCPUProfile (1184.27kB)" style="">
<text text-anchor="middle" x="1423.67" y="-169.4" font-family="Times,serif" font-size="14.00"> 1184.27kB</text>
</a>
</g>
</g>
</g>
</svg>